<svg width="130" height="50" viewBox="0 0 130 50" fill="none" xmlns="http://www.w3.org/2000/svg">
<path d="M18.4984 2.95996C9.58658 2.9857 2.36853 10.2038 2.34279 19.1156V30.2148C2.33456 36.75 6.26906 42.6449 12.3074 45.1443C18.3458 47.6437 25.2955 46.2541 29.9084 41.6249C32.9514 38.6085 34.6604 34.4995 34.654 30.2148V19.1156C34.6283 10.2038 27.4102 2.9857 18.4984 2.95996Z" fill="#0DBCBA"/>
<path d="M19.1894 0H17.8082C7.9848 0.0284482 0.0284482 7.9848 0 17.8082V31.5219C0.0284482 41.3453 7.9848 49.3017 17.8082 49.3301H19.1894C29.0128 49.3017 36.9691 41.3453 36.9976 31.5219V17.8082C36.9691 7.9848 29.0128 0.0284482 19.1894 0ZM35.1477 30.2147C35.1477 39.4096 27.6937 46.8636 18.4988 46.8636C9.30385 46.8636 1.84988 39.4096 1.84988 30.2147V19.1154C1.84988 9.92048 9.30385 2.46651 18.4988 2.46651C27.6937 2.46651 35.1477 9.92048 35.1477 19.1154V30.2147Z" fill="#0DBCBA"/>
<path d="M18.2095 10.4004C12.4285 10.4171 7.7462 15.0994 7.7295 20.8804V28.0803C7.72416 32.3196 10.2764 36.1436 14.1934 37.7649C18.1105 39.3862 22.6187 38.4848 25.611 35.4819C27.585 33.5252 28.6936 30.8598 28.6894 28.0803V20.8804C28.6727 15.0994 23.9905 10.4171 18.2095 10.4004Z" fill="white"/>
<path d="M15 30.2851H21.809V28.1791H17.106V25.1956H20.9315V23.0895H17.106V20.106H21.809V18H15V30.2851Z" fill="#0DBCBA" stroke="white" stroke-linecap="round"/>
<path d="M18.6569 8.48047H17.7609C11.3886 8.49892 6.22744 13.6601 6.20898 20.0324V28.9284C6.22744 35.3007 11.3886 40.4619 17.7609 40.4804H18.6569C25.0293 40.4619 30.1904 35.3007 30.2089 28.9284V20.0324C30.1904 13.6601 25.0293 8.49892 18.6569 8.48047ZM29.0089 28.0804C29.0089 34.0451 24.1736 38.8804 18.2089 38.8804C12.2443 38.8804 7.40898 34.0451 7.40898 28.0804V20.8804C7.40898 14.9158 12.2443 10.0805 18.2089 10.0805C24.1736 10.0805 29.0089 14.9158 29.0089 20.8804V28.0804Z" fill="white"/>
<path d="M44.7754 18.5453V24.5219H47.5929V23.5827H45.7146V21.9178H47.4221V20.9786H45.7146V19.4845H47.5929V18.5453H44.7754ZM49.0017 18.5453V24.5219H49.9408V20.9881L51.0507 24.5219H51.563L52.673 20.6371V24.5219H53.6121V18.5453H52.3314L51.2737 22.2498L50.1116 18.5453H49.0017ZM56.4723 18.5453H54.9782V24.5219H55.9174V22.2688H56.4723C57.6154 22.2688 58.3341 21.5004 58.3341 20.4071C58.3341 19.2616 57.5656 18.5453 56.4723 18.5453ZM56.4723 21.3296H55.9174V19.4845H56.4723C57.1221 19.4845 57.3949 19.7406 57.3949 20.4071C57.3949 21.0545 57.1387 21.3296 56.4723 21.3296ZM59.4938 18.5453V24.5219H62.3113V23.5827H60.433V18.5453H59.4938ZM63.2932 20.1343V22.9329C63.2932 23.9076 63.9596 24.6073 64.977 24.6073C65.9494 24.6073 66.649 23.9408 66.649 22.9329V20.1343C66.649 19.1596 65.9826 18.46 64.977 18.46C64.0023 18.46 63.2932 19.1098 63.2932 20.1343ZM64.2323 22.9329V20.1343C64.2323 19.5865 64.4387 19.3991 64.977 19.3991C65.513 19.3991 65.7099 19.6031 65.7099 20.1343V22.9329C65.7099 23.4712 65.5059 23.6681 64.977 23.6681C64.4292 23.6681 64.2323 23.4641 64.2323 22.9329ZM68.5701 22.0459V24.5219H69.5092V22.0459L70.7045 18.5453H69.68L69.0396 20.936L68.3993 18.5453H67.3747L68.5701 22.0459ZM71.8239 18.5453V24.5219H74.6415V23.5827H72.7631V21.9178H74.4707V20.9786H72.7631V19.4845H74.6415V18.5453H71.8239ZM76.0502 18.5453V24.5219H78.8677V23.5827H76.9894V21.9178H78.697V20.9786H76.9894V19.4845H78.8677V18.5453H76.0502ZM83.5636 18.5453L82.539 24.5219H83.4782L83.5802 23.9242H84.8514L84.9557 24.5219H85.8949L84.8703 18.5453H83.5636ZM83.7414 22.985L84.2205 20.2102L84.6901 22.985H83.7414ZM87.0807 18.5453V24.5219H88.0199V20.9881L89.4974 24.5219H90.4366V18.5453H89.4974V22.2759L87.9345 18.5453H87.0807ZM93.5102 18.5453H91.8287V24.5219H93.5102C94.5182 24.5219 95.1822 23.8222 95.1822 22.8475V20.2197C95.1822 19.245 94.5182 18.5453 93.5102 18.5453ZM93.5102 23.5827H92.7679V19.4845H93.5102C94.0486 19.4845 94.2431 19.6885 94.2431 20.2197V22.8475C94.2431 23.3787 94.0486 23.5827 93.5102 23.5827ZM98.863 18.5453V24.5219H99.8022V20.9881L100.912 24.5219H101.424L102.534 20.6371V24.5219H103.473V18.5453H102.193L101.135 22.2498L99.9729 18.5453H98.863ZM105.575 18.5453L104.55 24.5219H105.489L105.591 23.9242H106.863L106.965 24.5219H107.904L106.879 18.5453H105.575ZM105.753 22.985L106.232 20.2102L106.701 22.985H105.753ZM109.092 18.5453V24.5219H110.031V20.9881L111.509 24.5219H112.448V18.5453H111.509V22.2759L109.946 18.5453H109.092ZM114.573 18.5453L113.548 24.5219H114.487L114.589 23.9242H115.863L115.965 24.5219H116.904L115.88 18.5453H114.573ZM114.753 22.985L115.23 20.2102L115.699 22.985H114.753ZM117.808 20.1343V22.9329C117.808 23.9076 118.474 24.6073 119.492 24.6073C120.464 24.6073 121.164 23.9408 121.164 22.9329V21.4814H119.456V22.4206H120.224V22.9329C120.224 23.4712 120.02 23.6681 119.492 23.6681C118.944 23.6681 118.747 23.4641 118.747 22.9329V20.1343C118.747 19.5865 118.953 19.3991 119.492 19.3991C120.028 19.3991 120.224 19.6031 120.224 20.1343V20.5612H121.164V20.1343C121.164 19.1596 120.497 18.46 119.492 18.46C118.517 18.46 117.808 19.1098 117.808 20.1343ZM122.418 18.5453V24.5219H125.236V23.5827H123.357V21.9178H125.065V20.9786H123.357V19.4845H125.236V18.5453H122.418ZM128.319 18.5453H126.644V24.5219H127.584V21.9083H128.319C128.857 21.9083 129.061 22.1052 129.061 22.653V24.5219H130V22.653C130 22.1479 129.83 21.7305 129.531 21.4387C129.83 21.1399 130 20.713 130 20.2268C130 19.2118 129.301 18.5453 128.319 18.5453ZM128.319 20.9692H127.584V19.4845H128.319C128.857 19.4845 129.061 19.6814 129.061 20.2268C129.061 20.7557 128.857 20.9692 128.319 20.9692Z" fill="#0DBCBA"/>
<path d="M44.5898 30.9646H44.9883V29.5416H45.3867C45.9274 29.5416 46.3543 29.3827 46.3543 28.6309V27.891C46.3543 27.1273 45.9274 26.9803 45.3867 26.9803H44.5898V30.9646ZM44.9883 29.2001V27.3218H45.3867C45.733 27.3218 45.9559 27.4309 45.9559 27.9479V28.574C45.9559 29.091 45.733 29.2001 45.3867 29.2001H44.9883ZM48.1995 27.834V30.1108C48.1995 30.8745 48.6311 31.0215 49.1671 31.0215C49.7078 31.0215 50.1347 30.8626 50.1347 30.1108V27.834C50.1347 27.0704 49.7078 26.9233 49.1671 26.9233C48.6311 26.9233 48.1995 27.0704 48.1995 27.834ZM48.5979 29.997V27.9479C48.5979 27.4309 48.8185 27.3218 49.1671 27.3218C49.5134 27.3218 49.7363 27.4309 49.7363 27.9479V29.997C49.7363 30.514 49.5134 30.6231 49.1671 30.6231C48.8185 30.6231 48.5979 30.514 48.5979 29.997ZM52.2052 30.9646H52.6036V29.4847H53.0021L53.7135 30.9646H54.1404L53.4123 29.4396C53.7491 29.3543 53.9697 29.1195 53.9697 28.574V27.891C53.9697 27.1273 53.5428 26.9803 53.0021 26.9803H52.2052V30.9646ZM52.6036 29.1432V27.3218H53.0021C53.3507 27.3218 53.5712 27.4309 53.5712 27.9479V28.5171C53.5712 29.0341 53.3507 29.1432 53.0021 29.1432H52.6036ZM57.437 26.9803H55.5587V27.3218H56.2986V30.9646H56.6971V27.3218H57.437V26.9803ZM58.6252 30.9646H59.0236L59.2513 29.8831H60.2711L60.4988 30.9646H60.8972L60.06 26.9803H59.4624L58.6252 30.9646ZM59.3272 29.5416L59.7636 27.4522L60.2023 29.5416H59.3272ZM62.7139 26.9803V30.9646H64.1369V30.6231H63.1123V26.9803H62.7139Z" fill="#0DBCBA"/>
</svg>
